<svg width="40" height="40" viewBox="0 0 40 40" fill="none" xmlns="http://www.w3.org/2000/svg">
<path fill-rule="evenodd" clip-rule="evenodd" d="M3.33333 5.83336C2.20639 5.81743 2.20639 7.51597 3.33333 7.50003H6.8986C7.5924 7.50003 7.92223 7.65938 8.11605 7.82392C8.30986 7.98847 8.41615 8.20912 8.479 8.50589L12.1826 26.8303C12.3425 27.63 12.761 28.2641 13.2967 28.6467C13.717 28.9468 14.1837 29.0927 14.6338 29.1431C14.3379 29.6406 14.1642 30.218 14.1642 30.835C14.1642 32.6661 15.664 34.1659 17.4951 34.1659C19.3262 34.1659 20.8293 32.6661 20.8293 30.835C20.8293 30.2279 20.6612 29.6589 20.3735 29.1667H26.285C25.9979 29.6588 25.8301 30.228 25.8301 30.835C25.8301 32.6661 27.3307 34.1659 29.1618 34.1659C30.9929 34.1659 32.4959 32.6661 32.4959 30.835C32.4959 30.2279 32.3279 29.6589 32.0402 29.1667H32.0646C32.6202 29.1667 33.2322 29.0292 33.7679 28.6467C34.3036 28.2641 34.7221 27.63 34.882 26.8303L37.443 14.0235C37.5813 13.3319 37.4355 12.5658 36.9523 11.9255C36.4691 11.2851 35.6144 10.8334 34.5654 10.8334H32.0133L27.2542 6.0775C27.0951 5.9192 26.8789 5.83177 26.6545 5.83499C26.4376 5.83757 26.2304 5.92458 26.0767 6.0775L24.0145 8.13968C23.0153 6.71614 21.3701 5.8338 19.5833 5.83336C16.742 5.83267 14.4025 8.04525 14.1878 10.8334H10.6755L10.109 8.16084C9.99623 7.62815 9.73785 7.015 9.19433 6.55358C8.65081 6.09215 7.87147 5.83336 6.8986 5.83336H3.33333ZM19.5833 7.50003C20.9242 7.50036 22.1432 8.21214 22.8101 9.34411L21.3208 10.8334H15.8577C16.0634 8.95095 17.6437 7.49956 19.5833 7.50003ZM26.6675 7.84671L29.6541 10.8334H23.6808L26.6675 7.84671ZM11.0164 12.5H34.5654C35.1816 12.5 35.4473 12.6967 35.6226 12.9289C35.7978 13.1611 35.8498 13.4919 35.8089 13.6963L35.3817 15.8334H21.6667C20.5397 15.8174 20.5397 17.516 21.6667 17.5H35.048L33.2479 26.5031C33.1578 26.9534 32.9923 27.1526 32.7987 27.2909C32.605 27.4292 32.3424 27.5 32.0646 27.5H15C14.7222 27.5 14.4588 27.4291 14.2651 27.2909C14.0715 27.1526 13.9068 26.9534 13.8167 26.5031L12.0166 17.5H15C16.1269 17.516 16.1269 15.8174 15 15.8334H11.6829L11.0164 12.5ZM18.3333 15.8334C17.8731 15.8334 17.5 16.2065 17.5 16.6667C17.5 17.1269 17.8731 17.5 18.3333 17.5C18.7936 17.5 19.1667 17.1269 19.1667 16.6667C19.1667 16.2065 18.7936 15.8334 18.3333 15.8334ZM17.4951 29.1675C18.4255 29.1675 19.1618 29.9046 19.1618 30.835C19.1618 31.7653 18.4255 32.4984 17.4951 32.4984C16.5648 32.4984 15.8309 31.7653 15.8309 30.835C15.8309 29.9046 16.5648 29.1675 17.4951 29.1675ZM29.1618 29.1675C30.0921 29.1675 30.8284 29.9046 30.8284 30.835C30.8284 31.7653 30.0921 32.4984 29.1618 32.4984C28.2314 32.4984 27.4976 31.7653 27.4976 30.835C27.4976 29.9046 28.2314 29.1675 29.1618 29.1675Z" fill="black"/>
</svg>
