<svg width="18" height="14" viewBox="0 0 18 14" fill="none" xmlns="http://www.w3.org/2000/svg">
<path d="M2.62825 14C6.03625 11.552 7.76425 8.576 7.76425 5.072V4.88C7.76425 2.048 6.22825 0.175998 3.97225 0.175998C2.10025 0.175998 0.61225 1.664 0.61225 3.584C0.61225 5.504 1.90825 6.752 3.78025 6.752C4.16425 6.752 4.54825 6.656 4.93225 6.512C4.64425 8.48 3.25225 10.4 0.75625 12.272L2.62825 14ZM11.9883 14C15.3963 11.552 17.1243 8.576 17.1243 5.072V4.88C17.1243 2.048 15.5883 0.175998 13.3323 0.175998C11.4603 0.175998 9.97225 1.664 9.97225 3.584C9.97225 5.504 11.2682 6.752 13.1403 6.752C13.5243 6.752 13.9083 6.656 14.2923 6.512C14.0043 8.48 12.6123 10.4 10.1163 12.272L11.9883 14Z" fill="black"/>
</svg>
