<svg width="21" height="22" viewBox="0 0 21 22" fill="none" xmlns="http://www.w3.org/2000/svg">
<path d="M18.9525 0.892213C19.2598 0.892213 19.5202 1.00405 19.7337 1.22771C19.9472 1.45138 20.054 1.72418 20.054 2.04611V20.3468C20.054 20.6688 19.9472 20.9416 19.7337 21.1652C19.5202 21.3889 19.2598 21.5007 18.9525 21.5007H13.9839V13.5576H16.5197L16.8788 10.4182H13.9839V8.40521C13.9839 7.92195 14.0865 7.55528 14.2916 7.30521C14.4967 7.05515 14.8722 6.92975 15.4182 6.92901H16.9806V4.13831C16.2974 4.06645 15.5376 4.03051 14.7011 4.03051C13.5573 4.03051 12.635 4.38398 11.9343 5.09091C11.2336 5.79785 10.8836 6.79518 10.8843 8.08292V10.4171H8.34855V13.5565H10.8843V21.4996H1.48365C1.17635 21.4996 0.915952 21.3878 0.702452 21.1641C0.488952 20.9405 0.382202 20.6677 0.382202 20.3457V2.04501C0.382202 1.72308 0.488952 1.45028 0.702452 1.22661C0.915952 1.00295 1.17635 0.891113 1.48365 0.891113H18.9525V0.892213Z" fill="white"/>
</svg>
