<svg width="21" height="22" viewBox="0 0 21 22" fill="none" xmlns="http://www.w3.org/2000/svg">
<g clip-path="url(#clip0)">
<path d="M17.885 0H3.115C2.28956 0.00241888 1.49859 0.34701 0.914913 0.95848C0.331237 1.56995 0.00230893 2.39859 0 3.26333L0 18.7367C0.00230893 19.6014 0.331237 20.4301 0.914913 21.0415C1.49859 21.653 2.28956 21.9976 3.115 22H17.885C18.7104 21.9976 19.5014 21.653 20.0851 21.0415C20.6688 20.4301 20.9977 19.6014 21 18.7367V3.26333C20.9977 2.39859 20.6688 1.56995 20.0851 0.95848C19.5014 0.34701 18.7104 0.00241888 17.885 0V0ZM19.25 18.7367C19.25 19.1159 19.1062 19.4797 18.8502 19.7478C18.5942 20.016 18.247 20.1667 17.885 20.1667H3.115C2.75298 20.1667 2.40579 20.016 2.1498 19.7478C1.89381 19.4797 1.75 19.1159 1.75 18.7367V3.26333C1.75 2.88407 1.89381 2.52035 2.1498 2.25217C2.40579 1.98399 2.75298 1.83333 3.115 1.83333H17.885C18.247 1.83333 18.5942 1.98399 18.8502 2.25217C19.1062 2.52035 19.25 2.88407 19.25 3.26333V18.7367Z" fill="white"/>
<path d="M10.5 5.5C9.46165 5.5 8.44662 5.82257 7.58326 6.42692C6.7199 7.03126 6.04699 7.89025 5.64963 8.89524C5.25227 9.90023 5.14831 11.0061 5.35088 12.073C5.55345 13.1399 6.05347 14.1199 6.78769 14.8891C7.52192 15.6583 8.45738 16.1821 9.47578 16.3943C10.4942 16.6065 11.5498 16.4976 12.5091 16.0813C13.4684 15.6651 14.2883 14.9601 14.8652 14.0556C15.4421 13.1512 15.75 12.0878 15.75 11C15.75 9.54131 15.1969 8.14236 14.2123 7.11091C13.2277 6.07946 11.8924 5.5 10.5 5.5ZM10.5 14.6667C9.80777 14.6667 9.13108 14.4516 8.55551 14.0487C7.97993 13.6458 7.53133 13.0732 7.26642 12.4032C7.00152 11.7332 6.93221 10.9959 7.06725 10.2847C7.2023 9.5734 7.53564 8.92007 8.02513 8.40727C8.51461 7.89448 9.13825 7.54527 9.81719 7.40379C10.4961 7.26231 11.1999 7.33492 11.8394 7.61244C12.4789 7.88996 13.0256 8.35993 13.4101 8.96291C13.7947 9.56589 14 10.2748 14 11C14 11.9725 13.6313 12.9051 12.9749 13.5927C12.3185 14.2804 11.4283 14.6667 10.5 14.6667Z" fill="white"/>
<path d="M16.1875 6.4165C16.9124 6.4165 17.5 5.8009 17.5 5.0415C17.5 4.28211 16.9124 3.6665 16.1875 3.6665C15.4627 3.6665 14.875 4.28211 14.875 5.0415C14.875 5.8009 15.4627 6.4165 16.1875 6.4165Z" fill="white"/>
</g>
<defs>
<clipPath id="clip0">
<rect width="21" height="22" fill="white"/>
</clipPath>
</defs>
</svg>
