<svg width="17" height="15" viewBox="0 0 17 15" fill="none" xmlns="http://www.w3.org/2000/svg">
<path d="M5.31513 0.983997C1.90713 3.432 0.179125 6.408 0.179125 9.912V10.104C0.179125 12.936 1.71513 14.808 3.97113 14.808C5.84313 14.808 7.33113 13.32 7.33113 11.4C7.33113 9.48 6.03513 8.232 4.16313 8.232C3.77913 8.232 3.39513 8.328 3.01113 8.472C3.29913 6.504 4.69113 4.584 7.18713 2.712L5.31513 0.983997ZM14.6751 0.983997C11.2671 3.432 9.53912 6.408 9.53912 9.912V10.104C9.53912 12.936 11.0751 14.808 13.3311 14.808C15.2031 14.808 16.6911 13.32 16.6911 11.4C16.6911 9.48 15.3951 8.232 13.5231 8.232C13.1391 8.232 12.7551 8.328 12.3711 8.472C12.6591 6.504 14.0511 4.584 16.5471 2.712L14.6751 0.983997Z" fill="black"/>
</svg>
